HIERARCHY
ROOT Hips
{
	OFFSET	0.00	0.00	0.00
	CHANNELS 6 Xposition Yposition Zposition Zrotation Xrotation Yrotation
	JOINT LeftUpLeg
	{
		OFFSET	 0.126116	-0.014019	-0.065224
		CHANNELS 3 Zrotation Xrotation Yrotation
		JOINT LeftLeg
		{
			OFFSET	 0.000000	 0.000000	 0.569914
			CHANNELS 3 Zrotation Xrotation Yrotation
			JOINT LeftFoot
			{
				OFFSET	 0.000000	 0.000000	 0.544423
				CHANNELS 3 Zrotation Xrotation Yrotation
				JOINT LeftToeBase
				{
					OFFSET	 0.000000	 0.000000	 0.207117
					CHANNELS 3 Zrotation Xrotation Yrotation
					End Site
					{
						OFFSET	 0.000000	 0.000000	 0.207117
					}
				}
			}
		}
	}
	JOINT RightUpLeg
	{
		OFFSET	-0.124023	-0.008373	-0.065224
		CHANNELS 3 Zrotation Xrotation Yrotation
		JOINT RightLeg
		{
			OFFSET	 0.000000	 0.000000	 0.570047
			CHANNELS 3 Zrotation Xrotation Yrotation
			JOINT RightFoot
			{
				OFFSET	 0.000000	 0.000000	 0.544354
				CHANNELS 3 Zrotation Xrotation Yrotation
				JOINT RightToeBase
				{
					OFFSET	 0.000000	 0.000000	 0.207540
					CHANNELS 3 Zrotation Xrotation Yrotation
					End Site
					{
						OFFSET	 0.000000	 0.000000	 0.207540
					}
				}
			}
		}
	}
	JOINT Spine
	{
		OFFSET	 0.000184	-0.007763	 0.117403
		CHANNELS 3 Zrotation Xrotation Yrotation
		JOINT Spine1
		{
			OFFSET	 0.000000	 0.000000	 0.137269
			CHANNELS 3 Zrotation Xrotation Yrotation
			JOINT Spine2
			{
				OFFSET	 0.000000	 0.000000	 0.156879
				CHANNELS 3 Zrotation Xrotation Yrotation
				JOINT LeftShoulder
				{
					OFFSET	 0.080501	-0.002496	 0.160144
					CHANNELS 3 Zrotation Xrotation Yrotation
					JOINT LeftArm
					{
						OFFSET	 0.000000	 0.000000	 0.164363
						CHANNELS 3 Zrotation Xrotation Yrotation
						JOINT LeftForeArm
						{
							OFFSET	 0.000000	 0.000000	 0.364576
							CHANNELS 3 Zrotation Xrotation Yrotation
							JOINT LeftHand
							{
								OFFSET	 0.000000	 0.000000	 0.360812
								CHANNELS 3 Zrotation Xrotation Yrotation
								JOINT LeftHandIndex1
								{
									OFFSET	 0.000000	 0.000000	 0.086006
									CHANNELS 3 Zrotation Xrotation Yrotation
									JOINT LeftHandIndex2
									{
										OFFSET	 0.000000	 0.000000	 0.047237
										CHANNELS 3 Zrotation Xrotation Yrotation
										JOINT LeftHandIndex3
										{
											OFFSET	-0.004284	-0.000551	 0.038165
											CHANNELS 3 Zrotation Xrotation Yrotation
											End Site
											{
												OFFSET	-0.004284	-0.000551	 0.038165
											}
										}
									}
								}
							}
						}
					}
				}
				JOINT Neck
				{
					OFFSET	 0.000000	 0.000000	 0.176489
					CHANNELS 3 Zrotation Xrotation Yrotation
					JOINT Head
					{
						OFFSET	 0.000000	-0.001747	 0.077940
						CHANNELS 3 Zrotation Xrotation Yrotation
						End Site
						{
							OFFSET	 0.000000	-0.001747	 0.077940
						}
					}
				}
				JOINT RightShoulder
				{
					OFFSET	-0.080363	 0.000306	 0.159706
					CHANNELS 3 Zrotation Xrotation Yrotation
					JOINT RightArm
					{
						OFFSET	 0.000000	 0.000000	 0.164196
						CHANNELS 3 Zrotation Xrotation Yrotation
						JOINT RightForeArm
						{
							OFFSET	 0.000000	 0.000000	 0.365611
							CHANNELS 3 Zrotation Xrotation Yrotation
							JOINT RightHand
							{
								OFFSET	 0.000000	 0.000000	 0.360648
								CHANNELS 3 Zrotation Xrotation Yrotation
								JOINT RightHandIndex1
								{
									OFFSET	 0.000000	 0.000000	 0.069977
									CHANNELS 3 Zrotation Xrotation Yrotation
									JOINT RightHandIndex2
									{
										OFFSET	 0.000000	 0.000000	 0.052305
										CHANNELS 3 Zrotation Xrotation Yrotation
										JOINT RightHandIndex3
										{
											OFFSET	 0.009002	-0.000782	 0.042196
											CHANNELS 3 Zrotation Xrotation Yrotation
											End Site
											{
												OFFSET	 0.009002	-0.000782	 0.042196
											}
										}
									}
								}
							}
						}
					}
				}
			}
		}
	}
}
MOTION
Frames:    10
Frame Time: 0.03333334
-0.717553	-1.662155	 1.274723	-176.343400	 5.341564	-3.190510	-18.905420	-3.518628	-176.636100	-0.671001	-0.512626	 0.011461	-14.368870	 47.069800	 3.579290	-2.385833	 28.452760	 0.000004	 14.063140	-9.423919	-178.802000	-5.117087	-17.802270	 1.773577	-24.663410	 83.430210	 35.260670	 2.384659	 28.388700	-0.000001	-15.683460	 7.172216	 6.098219	-7.938021	-10.136350	-12.421100	 20.618200	-7.806604	 10.452860	-91.776240	 78.527420	-180.000000	-39.264030	-3.623361	-12.393230	-5.904002	-1.559558	-9.596398	 7.017669	-11.719910	-4.247597	-4.131196	 21.524690	 0.986298	-5.167839	 0.733520	 3.519257	-1.378229	 35.397820	-2.634230	 1.544711	 8.111600	 0.755606	-10.573560	-9.506974	-3.874945	 89.782180	 78.203920	 179.999900	-19.241070	-5.886532	-5.541236	-6.392724	-8.265261	 22.408350	-14.425640	 32.892350	 111.911300	 5.715225	 19.176060	-3.692089	 5.027514	 0.245388	-9.378011	-2.350882	 35.473990	 5.254307
-0.716873	-1.661911	 1.274664	-176.107400	 4.949795	-3.616539	-18.731550	-3.233745	-176.128300	 1.326377	-0.509819	 0.029201	-16.519730	 43.627140	 4.685321	-2.385833	 28.452760	 0.000004	 16.875720	-9.096968	-178.536500	-6.901909	-18.533700	 1.272794	-49.644710	 86.879460	 61.691680	 2.384659	 28.388700	-0.000001	-16.022290	 6.982937	 6.265314	-8.052325	-9.480243	-10.923630	 20.593350	-8.198620	 9.163155	-91.776180	 78.527400	 180.000000	-37.840540	-3.179133	-9.798374	-6.909351	-2.051450	-14.052410	 6.241349	-12.211260	-3.964422	-4.131196	 21.524690	 0.986298	-5.167839	 0.733520	 3.519257	-1.378229	 35.397820	-2.634230	 1.407744	 7.973777	 1.315762	-10.326810	-8.863673	-3.637320	 89.782180	 78.203900	 179.999900	-19.616380	-6.116833	-5.938146	-6.088334	-8.459114	 23.232210	-13.641260	 32.016200	 109.244100	 5.715225	 19.176060	-3.692089	 5.027514	 0.245388	-9.378011	-2.350882	 35.473990	 5.254307
-0.716719	-1.661388	 1.274794	-175.991200	 4.504537	-3.639103	-19.471790	-2.780011	-176.016300	 3.217979	-0.510811	 0.046228	-18.475630	 40.156650	 5.840722	-2.385833	 28.452760	 0.000004	 16.997500	-8.743675	-178.623300	-7.200884	-18.732770	 1.189569	-19.515100	 85.628920	 31.800760	 2.384659	 28.388700	-0.000001	-16.321070	 6.952814	 6.375211	-8.117459	-8.060260	-10.956450	 20.957830	-9.077372	 9.679549	-91.776210	 78.527400	-180.000000	-37.628300	-2.521353	-7.409015	-7.887353	-2.466661	-18.909160	 5.589996	-12.592630	-3.741977	-4.131196	 21.524690	 0.986298	-5.167839	 0.733520	 3.519257	-1.378229	 35.397820	-2.634230	 1.635547	 8.173175	 1.205120	-10.253270	-9.359470	-3.746163	 89.782100	 78.203870	 180.000000	-20.805450	-5.635240	-6.993594	-5.911211	-9.277290	 25.417870	-12.166730	 31.165280	 107.505400	 5.715225	 19.176060	-3.692089	 5.027514	 0.245388	-9.378011	-2.350882	 35.473990	 5.254307
-0.715295	-1.659557	 1.274611	-175.665900	 3.704100	-2.647385	-20.594230	-3.453486	-176.944900	 2.606274	-4.685553	 0.373151	-15.990980	 32.766710	 6.801218	-2.385833	 28.452760	 0.000004	 16.438980	-8.010723	-179.686200	-7.251430	-17.988880	 1.128265	 6.558598	 73.901170	 5.306443	 2.384659	 28.388700	-0.000001	-17.047760	 7.664723	 5.142577	-8.345586	-6.047328	-10.506770	 21.476600	-10.671630	 10.094550	-91.776170	 78.527380	 180.000000	-36.845160	-0.298834	-0.548689	-8.737940	-3.896743	-31.572650	 5.280787	-12.904400	-3.654657	-4.131196	 21.524690	 0.986298	-5.167839	 0.733520	 3.519257	-1.378229	 35.397820	-2.634230	 2.100995	 8.385865	 0.447395	-10.236960	-9.771020	-3.120708	 89.782120	 78.203900	 180.000000	-21.109490	-4.261662	-9.485096	-5.673441	-11.953860	 31.757140	-9.997008	 31.541730	 102.652600	 5.715225	 19.176060	-3.692089	 5.027514	 0.245388	-9.378011	-2.350882	 35.473990	 5.254307
-0.711758	-1.655438	 1.273866	-175.040300	 2.519804	-1.368055	-17.992150	-5.804362	-178.312400	 0.780552	-14.529710	 0.686069	-8.873283	 21.879910	 5.778230	-2.385833	 28.452760	 0.000004	 16.262890	-7.400854	 179.000800	-8.549930	-17.795850	 0.718720	 13.121760	 70.279390	-0.770759	 2.384659	 28.388700	-0.000001	-18.436170	 8.479844	 3.589782	-9.197025	-2.184643	-9.349199	 22.226510	-13.714120	 10.069360	-91.776210	 78.527380	-180.000000	-35.136410	 3.872068	 10.470270	-9.991469	-6.128598	-50.346300	 5.147614	-13.374410	-3.635338	-4.131196	 21.524690	 0.986298	-5.167839	 0.733520	 3.519257	-1.378229	 35.397820	-2.634230	 2.527579	 8.869881	 0.021624	-10.101950	-10.211100	-2.820100	 89.782180	 78.203900	 179.999900	-21.704340	-1.518033	-13.317550	-2.848743	-15.464630	 43.534770	-7.215917	 33.515170	 94.694260	 5.715225	 19.176060	-3.692089	 5.027514	 0.245388	-9.378011	-2.350882	 35.473990	 5.254307
-0.706608	-1.647696	 1.272449	-175.042100	 1.520921	-0.576078	-14.233370	-6.342834	-179.712800	-0.205258	-21.398640	 0.637509	-3.264711	 11.550740	 3.413478	-2.385833	 28.452760	 0.000004	 14.517170	-8.419873	 178.597200	-8.514653	-20.053770	 0.818464	 19.541040	 69.208450	-8.182295	 2.384659	 28.388700	-0.000001	-19.632720	 9.137535	 2.110333	-10.563960	 2.591135	-8.408531	 22.504630	-16.868380	 11.193340	-91.776120	 78.527400	 180.000000	-30.675030	 10.265490	 24.163100	-12.515330	-8.462536	-73.269530	 6.121582	-12.768150	-3.951550	-4.131196	 21.524690	 0.986298	-5.167839	 0.733520	 3.519257	-1.378229	 35.397820	-2.634230	 2.251624	 8.607818	-0.509487	-10.770170	-10.000820	-4.295369	 89.782190	 78.203900	 179.999900	-20.655230	 5.176109	-16.593000	 2.628162	-18.344080	 60.244300	-3.623611	 35.655870	 80.496150	 5.715225	 19.176060	-3.692089	 5.027514	 0.245388	-9.378011	-2.350882	 35.473990	 5.254307
-0.694910	-1.629108	 1.269397	-176.894400	 0.519206	 1.634944	-11.467690	-5.652856	 176.331100	-1.304891	-30.990760	 0.333274	-1.851148	 14.886000	 1.538778	-2.385833	 28.452760	 0.000004	 13.187840	-11.780410	 177.938800	-8.371814	-23.649720	 1.014840	 26.809860	 66.749130	-17.337270	 2.384659	 28.388700	-0.000001	-21.075480	 10.848800	-1.100018	-14.595800	 11.554970	-7.219194	 23.623310	-23.021870	 13.564320	-91.776250	 78.527420	-179.999900	-13.938900	 29.867820	 37.239070	-17.324820	-10.192290	-102.662100	 8.574604	-11.127970	-4.801840	-4.131196	 21.524690	 0.986298	-5.167839	 0.733520	 3.519257	-1.378229	 35.397820	-2.634230	 1.559762	 8.548662	-1.210404	-11.746470	-9.750318	-5.749445	 89.782100	 78.203900	-180.000000	-18.351450	 24.855250	-15.547290	 9.635789	-20.690870	 81.030940	-10.730580	 31.987660	 63.657570	 5.715225	 19.176060	-3.692089	 5.027514	 0.245388	-9.378011	-2.350882	 35.473990	 5.254307
-0.679301	-1.599433	 1.267494	-179.428800	 2.552149	 3.401626	-10.323550	-4.473205	 171.975300	-3.421822	-36.506510	-0.874475	-4.160205	 29.905520	 1.315022	-2.385833	 28.452760	 0.000004	 13.258760	-19.499960	 179.304000	-8.472676	-28.112840	 1.144465	 32.118700	 63.332090	-25.548580	 2.384659	 28.388700	-0.000001	-24.270660	 10.852990	-6.649132	-21.286080	 18.719340	-2.067187	 24.684630	-28.585650	 14.060570	-91.776140	 78.527360	 180.000000	 16.887670	 54.294440	 1.157181	-16.666590	-12.830770	-97.250610	 10.218400	-10.282680	-5.626712	-4.131196	 21.524690	 0.986298	-5.167839	 0.733520	 3.519257	-1.378229	 35.397820	-2.634230	 1.461516	 8.657735	-1.963536	-12.163870	-10.016450	-5.561445	 89.782120	 78.203870	 180.000000	-20.133970	 56.063890	-4.563529	 7.582426	-21.611260	 76.004090	-42.740390	 14.851170	 68.691880	 5.715225	 19.176060	-3.692089	 5.027514	 0.245388	-9.378011	-2.350882	 35.473990	 5.254307
-0.657859	-1.558631	 1.266610	 178.244400	 5.828998	 5.156198	-10.181000	-2.140779	 168.090300	-5.373735	-37.785380	-2.097995	-9.492661	 45.958120	 4.880822	-2.385833	 28.452760	 0.000004	 13.315910	-26.753390	-179.268800	-9.100835	-29.260220	 0.879758	 31.341610	 57.918380	-27.237740	 2.384659	 28.388700	-0.000001	-27.109310	 11.060600	-13.590000	-27.493430	 20.545520	 4.147353	 24.721290	-31.535190	 13.231020	-91.776180	 78.527360	-180.000000	 22.732540	 61.059380	-43.022140	-6.624836	-8.349172	-44.437540	 9.359933	-11.102480	-5.297864	-4.131196	 21.524690	 0.986298	-5.167839	 0.733520	 3.519257	-1.378229	 35.397820	-2.634230	 1.408376	 8.778892	-2.141166	-12.303050	-10.377210	-5.602145	 89.782140	 78.203900	 180.000000	-34.488230	 70.449190	 26.267020	-6.134455	-12.662390	 32.537540	-60.105960	-22.528680	 74.218330	 5.715225	 19.176060	-3.692089	 5.027514	 0.245388	-9.378011	-2.350882	 35.473990	 5.254307
-0.619541	-1.498676	 1.266694	 176.778000	 5.861855	 5.993774	-9.929028	 3.219276	 166.674800	-6.857923	-35.859860	-2.878462	-18.841980	 63.798090	 12.459090	-2.385833	 28.452760	 0.000004	 13.180970	-27.136630	 179.586800	-10.379290	-27.735610	 0.242493	 28.354990	 53.123540	-24.536040	 2.384659	 28.388700	-0.000001	-26.499360	 11.585330	-15.000260	-28.563290	 20.205060	 4.763040	 24.825880	-31.893450	 13.360940	-91.776250	 78.527400	-179.999900	 17.684600	 62.380680	-47.653470	-7.518494	-4.102301	-28.422180	 7.108581	-13.216500	-4.271302	-4.131196	 21.524690	 0.986298	-5.167839	 0.733520	 3.519257	-1.378229	 35.397820	-2.634230	 1.379398	 8.810518	-2.302679	-12.343450	-10.606010	-5.036144	 89.782050	 78.203850	-180.000000	-36.544300	 69.060030	 36.812550	-8.595401	-4.572474	 11.485080	-57.131950	-37.704090	 81.514420	 5.715225	 19.176060	-3.692089	 5.027514	 0.245388	-9.378011	-2.350882	 35.473990	 5.254307
